<?xml version="1.0" standalone="no"?>
<!DOCTYPE svg PUBLIC "-//W3C//DTD SVG 20010904//EN"
 "http://www.w3.org/TR/2001/REC-SVG-20010904/DTD/svg10.dtd">
<svg version="1.0" xmlns="http://www.w3.org/2000/svg"
 width="512.000000pt" height="512.000000pt" viewBox="0 0 512.000000 512.000000"
 preserveAspectRatio="xMidYMid meet">
<metadata>
Created by potrace 1.14, written by Peter Selinger 2001-2017
</metadata>
<g transform="translate(0.000000,512.000000) scale(0.100000,-0.100000)"
fill="#000000" stroke="none">
<path d="M3453 5106 c-41 -19 -55 -41 -102 -168 -53 -144 -80 -186 -142 -227
-53 -35 -134 -67 -185 -74 -44 -6 -127 19 -245 74 -58 27 -118 49 -133 49 -43
0 -77 -23 -159 -109 -70 -74 -77 -84 -77 -122 0 -27 14 -70 41 -128 23 -47 51
-115 63 -151 21 -60 22 -69 9 -129 -16 -77 -57 -165 -94 -201 -37 -35 -98 -66
-207 -106 -162 -59 -172 -73 -172 -229 0 -158 11 -174 170 -229 149 -53 194
-80 233 -140 98 -150 98 -235 2 -442 -64 -137 -63 -156 23 -248 128 -138 147
-142 309 -65 176 83 246 87 379 22 95 -46 130 -96 195 -278 52 -145 69 -157
234 -154 l115 1 38 37 c21 21 39 44 39 52 2 21 57 170 84 225 40 80 166 154
272 160 71 3 130 -13 252 -72 141 -67 166 -62 282 58 101 104 103 125 35 265
-44 90 -78 188 -77 218 2 48 30 135 61 191 44 81 105 121 263 174 142 47 153
63 159 215 5 158 -11 181 -163 235 -93 34 -155 63 -196 92 -52 38 -116 173
-124 263 -2 28 31 128 75 224 28 59 50 118 50 130 0 42 -28 86 -97 153 -108
105 -132 109 -271 41 -151 -73 -191 -83 -273 -67 -69 13 -174 61 -202 92 -29
32 -78 132 -108 218 -36 104 -51 128 -92 147 -43 20 -220 22 -264 3z m332
-780 c198 -56 378 -199 472 -373 69 -130 94 -239 89 -398 -4 -135 -24 -215
-83 -326 -168 -323 -553 -485 -900 -379 -399 122 -632 542 -518 935 80 277
275 469 550 543 91 25 300 24 390 -2z"/>
<path d="M3488 4034 c-174 -40 -314 -178 -353 -349 -12 -52 -12 -149 0 -210
12 -61 68 -157 124 -214 128 -130 315 -171 485 -107 73 28 108 51 169 109 19
20 38 33 41 31 3 -2 4 -1 2 2 -3 3 11 34 29 67 76 141 80 281 10 424 -92 188
-306 292 -507 247z"/>
<path d="M1630 4363 c0 -10 -130 -13 -587 -13 -324 0 -604 -3 -623 -6 -191
-33 -368 -205 -409 -399 -7 -34 -10 -444 -8 -1285 l2 -1235 24 -60 c63 -157
172 -262 331 -316 51 -17 93 -22 190 -24 69 -2 127 -4 130 -5 3 -1 10 -1 15 0
24 7 1177 4 1182 -3 2 -4 12 -3 21 1 9 4 463 7 1007 7 934 -1 994 0 1058 17
102 28 165 63 238 137 69 69 116 152 138 244 17 71 16 757 -1 773 -21 19 -154
74 -180 74 -41 -1 -67 -32 -99 -120 -61 -171 -106 -242 -185 -291 -23 -14 -34
-28 -34 -44 l0 -24 -777 0 c-595 0 -779 3 -785 12 -6 9 -8 9 -8 0 0 -10 -194
-12 -880 -12 l-880 0 0 1024 0 1025 664 0 664 0 21 33 c49 79 123 128 273 181
75 27 111 45 122 62 17 24 21 75 9 88 -5 4 -8 11 -9 14 -1 4 -14 35 -30 70
l-29 62 -175 1 c-96 0 -220 0 -274 -1 -72 -1 -101 2 -107 12 -7 10 -9 10 -9 1z
m1123 -2846 c58 -38 76 -99 48 -162 -34 -78 -16 -75 -634 -75 l-544 1 -38 32
c-42 37 -57 84 -41 136 10 34 56 76 91 83 11 2 261 3 555 3 495 0 538 -1 563
-18z"/>
<path d="M1831 753 c-52 -18 -118 -81 -146 -138 -16 -34 -19 -64 -20 -200 l-2
-159 -339 -1 c-308 0 -342 -2 -367 -18 -40 -26 -61 -65 -60 -109 2 -48 23 -82
66 -108 31 -19 60 -20 1210 -20 1327 0 1233 -6 1267 74 29 66 12 125 -47 163
-25 16 -59 18 -360 18 -182 0 -334 3 -337 5 -2 3 -6 80 -8 172 -1 91 -6 165
-9 163 -3 -2 -13 14 -23 35 -22 50 -85 104 -143 124 -66 22 -617 21 -682 -1z"/>
</g>
</svg>
